<svg xmlns="http://www.w3.org/2000/svg" version="1.1" xmlns:xlink="http://www.w3.org/1999/xlink" xmlns:svgjs="http://svgjs.dev/svgjs" width="98" height="98"><svg width="98" height="98" viewBox="0 0 25.929167 25.929167" version="1.1" id="SvgjsSvg1081" inkscape:version="1.2.2 (b0a8486541, 2022-12-01)" sodipodi:docname="cabra.svg" xmlns:inkscape="http://www.inkscape.org/namespaces/inkscape" xmlns:sodipodi="http://sodipodi.sourceforge.net/DTD/sodipodi-0.dtd" xmlns="http://www.w3.org/2000/svg" xmlns:svg="http://www.w3.org/2000/svg">
  <sodipodi:namedview id="SvgjsSodipodi:namedview1080" pagecolor="#505050" bordercolor="#eeeeee" borderopacity="1" inkscape:showpageshadow="0" inkscape:pageopacity="0" inkscape:pagecheckerboard="0" inkscape:deskcolor="#d1d1d1" inkscape:document-units="mm" showgrid="false" inkscape:zoom="4.0266554" inkscape:cx="57.243537" inkscape:cy="57.243537" inkscape:window-width="1364" inkscape:window-height="726" inkscape:window-x="0" inkscape:window-y="20" inkscape:window-maximized="1" inkscape:current-layer="layer1"></sodipodi:namedview>
  <defs id="SvgjsDefs1079"></defs>
  <g inkscape:label="Camada 1" inkscape:groupmode="layer" id="SvgjsG1078">
    <g id="SvgjsG1077" transform="matrix(0.02567408,0,0,0.02567408,-17.470084,-3.7472368)" inkscape:label="head">
      <g id="SvgjsG1076" transform="rotate(-10.990959,1297.7428,1850.1135)">
        <path style="opacity:1;fill:#ebcb8b;fill-opacity:1;stroke:#2e3440;stroke-width:13.2;stroke-linecap:round;stroke-linejoin:round;stroke-dasharray:none;stroke-opacity:0.999112;paint-order:normal" d="m 1235.5375,411.39229 c 34.6705,-127.11052 160.3017,-162.50709 175.9219,-138.61635 -27.7222,54.31116 -34.38,77.45749 -37.6934,163.00081 -58.6681,39.9707 -105.1926,33.5553 -138.2285,-24.38446 z" id="SvgjsPath1075" sodipodi:nodetypes="cccc"></path>
        <path style="opacity:1;fill:none;fill-opacity:1;stroke:#2e3440;stroke-width:13.2;stroke-linecap:round;stroke-linejoin:round;stroke-dasharray:none;stroke-opacity:0.999112;paint-order:normal" d="m 1376.1153,409.5047 c -68.2044,12.47339 -89.4001,-28.21424 -113.5492,-65.56194" id="SvgjsPath1074" sodipodi:nodetypes="cc"></path>
        <path style="opacity:1;fill:none;fill-opacity:1;stroke:#2e3440;stroke-width:13.2;stroke-linecap:round;stroke-linejoin:round;stroke-dasharray:none;stroke-opacity:0.999112;paint-order:normal" d="m 1382.3648,347.40921 c -31.0344,-3.47648 -51.9359,-21.31611 -61.311,-55.49424" id="SvgjsPath1073" sodipodi:nodetypes="cc"></path>
      </g>
      <path style="opacity:1;fill:#eceff4;fill-opacity:1;stroke:#2e3440;stroke-width:13.2;stroke-linecap:round;stroke-linejoin:round;stroke-dasharray:none;stroke-opacity:0.999112;paint-order:normal" d="m 965.55534,913.75771 4.64187,60.04063 24.40633,-11.66837 c 6.99096,26.76142 -0.77476,42.04753 -5.67482,59.56203 44.95408,-13.5854 80.73578,-41.36299 105.20238,-86.64815" id="SvgjsPath1072" sodipodi:nodetypes="ccccc" inkscape:label="chin_hair"></path>
      <g id="SvgjsG1071" inkscape:label="left_ear">
        <path style="fill:#d78781;fill-opacity:1;stroke:#2e3440;stroke-width:16.4;stroke-linecap:round;stroke-linejoin:bevel;stroke-dasharray:none;stroke-opacity:1" d="m 1014.2844,585.86204 c -70.79361,52.53027 -148.18811,80.03891 -255.83907,-7.14408 -31.06481,63.98727 191.37476,135.32993 244.25667,56.75313" id="SvgjsPath1070" sodipodi:nodetypes="ccc"></path>
        <path style="fill:#eceff4;fill-opacity:1;stroke:#2e3440;stroke-width:16.4;stroke-linecap:round;stroke-linejoin:round;stroke-dasharray:none;stroke-opacity:1" d="M 1014.2844,585.86204 C 943.49079,638.39231 866.09629,665.90095 758.44533,578.71796 901.69898,555.15492 882.34946,490.75372 942.49362,494.2922" id="SvgjsPath1069" sodipodi:nodetypes="ccc"></path>
      </g>
      <path style="fill:#eceff4;stroke:#2e3440;stroke-width:16.4;stroke-linecap:round;stroke-dasharray:none;stroke-opacity:1" d="m 889.09881,867.34764 c -63.7724,-86.24182 20.42246,-186.47525 20.42246,-186.47525 0,0 -45.20768,-183.6819 84.07007,-242.42433 193.90836,-88.10989 424.51816,-60.25512 454.91896,54.27764 46.2328,174.17859 38.7829,393.51219 -107.0471,418.57727 -143.9943,21.22103 -379.8398,46.02339 -452.36439,-43.95533 z" id="SvgjsPath1068" sodipodi:nodetypes="ccsscc" inkscape:label="head_base"></path>
      <g id="SvgjsG1067" inkscape:label="nose">
        <path style="opacity:1;fill:none;stroke:#2e3440;stroke-width:16.4;stroke-linecap:round;stroke-dasharray:none;stroke-opacity:1" d="m 948.32237,795.46801 24.65011,21.70475 36.48392,-23.1534" id="SvgjsPath1066"></path>
        <path style="opacity:1;fill:none;stroke:#2e3440;stroke-width:16.4;stroke-linecap:round;stroke-dasharray:none;stroke-opacity:1" d="m 973.54772,815.38269 0.0138,36.56735" id="SvgjsPath1065" sodipodi:nodetypes="cc"></path>
      </g>
      <g id="SvgjsG1064" inkscape:label="right_ear">
        <path style="opacity:1;fill:#d78781;fill-opacity:1;stroke:#2e3440;stroke-width:16.4;stroke-linecap:round;stroke-linejoin:bevel;stroke-dasharray:none;stroke-opacity:1" d="m 1397.4501,573.89598 c 70.7936,52.53027 148.1881,80.03891 255.8391,-7.14408 -32.9798,93.80786 -191.3748,135.32993 -244.2567,56.75313" id="SvgjsPath1063" sodipodi:nodetypes="ccc"></path>
        <path style="opacity:1;fill:#eceff4;fill-opacity:1;stroke:#2e3440;stroke-width:16.4;stroke-linecap:round;stroke-linejoin:round;stroke-dasharray:none;stroke-opacity:1" d="m 1397.4501,573.89598 c 70.7936,52.53027 148.1881,80.03891 255.8391,-7.14408 -89.7285,-11.69834 -174.9552,-44.06945 -214.3861,-96.55096" id="SvgjsPath1062" sodipodi:nodetypes="ccc" inkscape:label="path2764"></path>
      </g>
      <g id="SvgjsG1061" inkscape:label="right_eye">
        <ellipse style="opacity:1;fill:#2e3440;fill-opacity:1;stroke:#2e3440;stroke-width:13.2;stroke-linecap:round;stroke-linejoin:miter;stroke-dasharray:none;stroke-opacity:0.999112;paint-order:normal" id="SvgjsEllipse1060" cx="1163.7736" cy="685.13586" rx="31.342104" ry="41.003998"></ellipse>
        <ellipse style="opacity:1;fill:#eceff4;fill-opacity:1;stroke:none;stroke-width:13.2;stroke-linecap:round;stroke-linejoin:miter;stroke-dasharray:none;stroke-opacity:0.999112;paint-order:normal" id="SvgjsEllipse1059" ry="13.267287" rx="16.723318" cy="1328.2411" cx="128.32869" transform="rotate(-54.408985)"></ellipse>
        <circle style="fill:#eceff4;fill-opacity:1;stroke:none;stroke-width:13.2;stroke-linecap:round;stroke-linejoin:miter;stroke-dasharray:none;stroke-opacity:0.999112;paint-order:normal" id="SvgjsCircle1058" cy="1364.1274" cx="108.90841" transform="rotate(-54.408985)" r="12.071394"></circle>
      </g>
      <g id="SvgjsG1057" inkscape:label="left_eye">
        <ellipse style="fill:#2e3440;fill-opacity:1;stroke:#2e3440;stroke-width:13.2;stroke-linecap:round;stroke-linejoin:miter;stroke-dasharray:none;stroke-opacity:0.999112;paint-order:normal" id="SvgjsEllipse1056" cx="962.64526" cy="683.24316" rx="31.342104" ry="41.003998"></ellipse>
        <ellipse style="fill:#eceff4;fill-opacity:1;stroke:none;stroke-width:13.2;stroke-linecap:round;stroke-linejoin:miter;stroke-dasharray:none;stroke-opacity:0.999112;paint-order:normal" id="SvgjsEllipse1055" ry="13.267287" rx="16.723318" cy="1162.4559" cx="13.744968" transform="rotate(-54.408985)"></ellipse>
        <circle style="fill:#eceff4;fill-opacity:1;stroke:none;stroke-width:13.2;stroke-linecap:round;stroke-linejoin:miter;stroke-dasharray:none;stroke-opacity:0.999112;paint-order:normal" id="SvgjsCircle1054" cy="1198.3423" cx="-5.6753116" transform="rotate(-54.408985)" r="12.071394" inkscape:label="path3634-7-1"></circle>
      </g>
      <path style="fill:#eceff4;fill-opacity:1;stroke:#2e3440;stroke-width:13.2;stroke-linecap:round;stroke-linejoin:round;stroke-dasharray:none;stroke-opacity:0.999112;paint-order:normal" d="m 1221.0533,392.752 c -37.989,7.06519 -26.8751,-32.86265 -41.5365,-56.62987 -23.4236,9.55953 -23.0839,33.22357 -25.6074,55.18813 -9.7767,-20.79427 -20.4321,-41.14618 -45.3122,-54.33658 l -4.1303,55.78554 c -15.3198,-23.02932 -45.5751,-22.24337 -45.5751,-22.24337 0,0 12.9366,25.52148 12.5211,49.73483" id="SvgjsPath1053" sodipodi:nodetypes="ccccccc" inkscape:label="hair"></path>
      <g id="SvgjsG1052" inkscape:label="horn">
        <path style="opacity:1;fill:#ebcb8b;fill-opacity:1;stroke:#2e3440;stroke-width:13.2;stroke-linecap:round;stroke-linejoin:round;stroke-dasharray:none;stroke-opacity:0.999112;paint-order:normal" d="m 1235.5375,411.39229 c 34.6705,-127.11052 160.3017,-162.50709 175.9219,-138.61635 -27.7222,54.31116 -34.38,77.45749 -37.6934,163.00081 -58.6681,39.9707 -105.1926,33.5553 -138.2285,-24.38446 z" id="SvgjsPath1051" sodipodi:nodetypes="cccc"></path>
        <path style="opacity:1;fill:none;fill-opacity:1;stroke:#2e3440;stroke-width:13.2;stroke-linecap:round;stroke-linejoin:round;stroke-dasharray:none;stroke-opacity:0.999112;paint-order:normal" d="m 1376.1153,409.5047 c -68.2044,12.47339 -89.4001,-28.21424 -113.5492,-65.56194" id="SvgjsPath1050" sodipodi:nodetypes="cc"></path>
        <path style="opacity:1;fill:none;fill-opacity:1;stroke:#2e3440;stroke-width:13.2;stroke-linecap:round;stroke-linejoin:round;stroke-dasharray:none;stroke-opacity:0.999112;paint-order:normal" d="m 1382.3648,347.40921 c -31.0344,-3.47648 -51.9359,-21.31611 -61.311,-55.49424" id="SvgjsPath1049" sodipodi:nodetypes="cc"></path>
      </g>
    </g>
  </g>
</svg><style>@media (prefers-color-scheme: light) { :root { filter: none; } }
@media (prefers-color-scheme: dark) { :root { filter: none; } }
</style></svg>